<svg width="20" height="20" viewBox="0 0 20 20" fill="none" xmlns="http://www.w3.org/2000/svg">
<path d="M14.312 7.5C14.312 9.88173 12.3812 11.8125 9.99951 11.8125C7.61778 11.8125 5.68701 9.88173 5.68701 7.5C5.68701 5.11827 7.61778 3.1875 9.99951 3.1875C12.3812 3.1875 14.312 5.11827 14.312 7.5Z" fill="white" stroke="white" stroke-width="0.125"/>
<path d="M9.99951 0.625001C8.58389 0.624457 7.20263 1.06109 6.04454 1.87523C4.88645 2.68936 4.00802 3.84127 3.52934 5.1735C3.05065 6.50574 2.99505 7.9533 3.37015 9.31832C3.74525 10.6833 4.53273 11.8992 5.62497 12.7998V18.75C5.62496 18.8565 5.65219 18.9613 5.70406 19.0544C5.75594 19.1474 5.83075 19.2257 5.92138 19.2817C6.01202 19.3377 6.11546 19.3696 6.2219 19.3744C6.32833 19.3792 6.43422 19.3567 6.52951 19.309L9.99943 17.5738L13.4705 19.309C13.5658 19.3567 13.6717 19.3792 13.7781 19.3744C13.8845 19.3696 13.988 19.3377 14.0786 19.2816C14.1692 19.2256 14.244 19.1474 14.2959 19.0543C14.3477 18.9613 14.375 18.8565 14.375 18.75V12.799C15.467 11.8984 16.2542 10.6824 16.6291 9.31746C17.004 7.95248 16.9483 6.50504 16.4695 5.17294C15.9907 3.84084 15.1123 2.68908 13.9542 1.87505C12.7962 1.06103 11.415 0.624456 9.99951 0.625001V0.625001ZM9.99951 13.125C8.88699 13.125 7.79946 12.7951 6.87443 12.177C5.9494 11.5589 5.22843 10.6804 4.80269 9.65259C4.37695 8.62476 4.26555 7.49376 4.4826 6.40262C4.69964 5.31147 5.23537 4.3092 6.02204 3.52252C6.80871 2.73585 7.81099 2.20013 8.90213 1.98308C9.99327 1.76604 11.1243 1.87744 12.1521 2.30318C13.1799 2.72892 14.0584 3.44989 14.6765 4.37492C15.2946 5.29994 15.6245 6.38748 15.6245 7.5C15.6228 8.99133 15.0297 10.4211 13.9751 11.4756C12.9206 12.5301 11.4908 13.1233 9.99951 13.125V13.125Z" fill="#666666"/>
</svg>
