<svg width="22" height="21" viewBox="0 0 22 21" fill="none" xmlns="http://www.w3.org/2000/svg">
<path d="M21.4219 8.13233C21.3282 7.83834 21.1482 7.57941 20.9052 7.3893C20.6621 7.1992 20.3675 7.08676 20.0596 7.06665L14.4917 6.677L12.4263 1.47607C12.3145 1.18854 12.1185 0.941482 11.8639 0.767267C11.6093 0.593052 11.308 0.499808 10.9995 0.499756H10.9981C10.69 0.500305 10.3894 0.593786 10.1353 0.767975C9.8813 0.942164 9.68575 1.18895 9.57423 1.47607L7.47804 6.70703L1.94093 7.06665C1.63305 7.08676 1.33838 7.1992 1.09536 7.3893C0.852347 7.57941 0.672271 7.83834 0.57863 8.13233C0.479845 8.43048 0.473125 8.75148 0.559344 9.05351C0.645564 9.35554 0.820729 9.62461 1.06203 9.82569L5.32179 13.4263L4.0547 18.4104C3.96737 18.7461 3.98343 19.1004 4.10078 19.4269C4.21814 19.7533 4.43132 20.0367 4.71242 20.24C4.98381 20.4374 5.30836 20.5486 5.64382 20.5591C5.97928 20.5695 6.31012 20.4788 6.59328 20.2986L10.9878 17.5147C10.9937 17.5103 10.9995 17.5073 11.0127 17.5147L15.7412 20.5103C15.9979 20.6743 16.2982 20.757 16.6026 20.7476C16.9071 20.7382 17.2017 20.6371 17.4478 20.4575C17.7025 20.2734 17.8957 20.0167 18.002 19.7209C18.1084 19.4252 18.123 19.1042 18.044 18.8001L16.6978 13.3552L20.9385 9.82569C21.1798 9.62461 21.355 9.35554 21.4412 9.05351C21.5274 8.75148 21.5207 8.43048 21.4219 8.13233Z" fill="#FF9F00"/>
</svg>
